REM GENRE General Alternative Rock
REM DATE 2014
REM COMMENT TPB FTW!
PERFORMER "Artur Rojek"
TITLE "Składam się z ciągłych powtórzeń"
REM REPLAYGAIN_ALBUM_GAIN -8.44 dB
REM REPLAYGAIN_ALBUM_PEAK 1.000000
FILE "01 - Artur Rojek - Lato 76.flac" WAVE
  TRACK 01 AUDIO
    TITLE "Lato 76"
    PERFORMER "Artur Rojek"
    REM REPLAYGAIN_TRACK_GAIN -6.99 dB
    REM REPLAYGAIN_TRACK_PEAK 0.981934
    INDEX 01 00:00:00
FILE "02 - Artur Rojek - Beksa.flac" WAVE
  TRACK 02 AUDIO
    TITLE "Beksa"
    PERFORMER "Artur Rojek"
    REM REPLAYGAIN_TRACK_GAIN -9.72 dB
    REM REPLAYGAIN_TRACK_PEAK 0.988403
    INDEX 01 00:00:00
FILE "03 - Artur Rojek - Krótkie momenty skupienia.flac" WAVE
  TRACK 03 AUDIO
    TITLE "Krótkie momenty skupienia"
    PERFORMER "Artur Rojek"
    REM REPLAYGAIN_TRACK_GAIN -7.49 dB
    REM REPLAYGAIN_TRACK_PEAK 0.999298
    INDEX 01 00:00:00
FILE "04 - Artur Rojek - Czas który pozostał.flac" WAVE
  TRACK 04 AUDIO
    TITLE "Czas który pozostał"
    PERFORMER "Artur Rojek"
    REM REPLAYGAIN_TRACK_GAIN -9.20 dB
    REM REPLAYGAIN_TRACK_PEAK 1.000000
    INDEX 01 00:00:00
FILE "05 - Artur Rojek - Kot i Pelikan.flac" WAVE
  TRACK 05 AUDIO
    TITLE "Kot i Pelikan"
    PERFORMER "Artur Rojek"
    REM REPLAYGAIN_TRACK_GAIN -5.41 dB
    REM REPLAYGAIN_TRACK_PEAK 0.979004
    INDEX 01 00:00:00
FILE "06 - Artur Rojek - Kokon.flac" WAVE
  TRACK 06 AUDIO
    TITLE "Kokon"
    PERFORMER "Artur Rojek"
    REM REPLAYGAIN_TRACK_GAIN -6.55 dB
    REM REPLAYGAIN_TRACK_PEAK 0.988556
    INDEX 01 00:00:00
FILE "07 - Artur Rojek - To co będzie.flac" WAVE
  TRACK 07 AUDIO
    TITLE "To co będzie"
    PERFORMER "Artur Rojek"
    REM REPLAYGAIN_TRACK_GAIN -9.05 dB
    REM REPLAYGAIN_TRACK_PEAK 1.000000
    INDEX 01 00:00:00
FILE "08 - Artur Rojek - Syreny.flac" WAVE
  TRACK 08 AUDIO
    TITLE "Syreny"
    PERFORMER "Artur Rojek"
    REM REPLAYGAIN_TRACK_GAIN -8.03 dB
    REM REPLAYGAIN_TRACK_PEAK 1.000000
    INDEX 01 00:00:00
FILE "09 - Artur Rojek - Lekkość.flac" WAVE
  TRACK 09 AUDIO
    TITLE "Lekkość"
    PERFORMER "Artur Rojek"
    REM REPLAYGAIN_TRACK_GAIN -7.35 dB
    REM REPLAYGAIN_TRACK_PEAK 0.998230
    INDEX 01 00:00:00
FILE "10 - Artur Rojek - Pomysł 2.flac" WAVE
  TRACK 10 AUDIO
    TITLE "Pomysł 2"
    PERFORMER "Artur Rojek"
    REM REPLAYGAIN_TRACK_GAIN -8.00 dB
    REM REPLAYGAIN_TRACK_PEAK 0.980560
    INDEX 01 00:00:00
